<svg width="512" height="512" viewBox="0 0 512 512" fill="none" xmlns="http://www.w3.org/2000/svg">
<rect width="512" height="512" rx="65.536" fill="black"/>
<path d="M342.311 161.192V96.4588H327.565V81.4183H342.311V77.2895C342.311 71.293 343.54 66.2795 345.997 62.249C348.455 58.1202 351.846 54.9745 356.172 52.8118C360.595 50.6491 365.658 49.5678 371.36 49.5678C372.441 49.5678 373.67 49.6661 375.046 49.8627C376.422 49.961 377.553 50.1085 378.438 50.3051V64.7557C377.651 64.5591 376.766 64.4608 375.783 64.4608C374.8 64.3625 374.014 64.3134 373.424 64.3134C369 64.3134 365.461 65.3456 362.807 67.41C360.153 69.376 358.826 72.6692 358.826 77.2895V81.4183H377.111V96.4588H358.826V161.192H342.311ZM391.924 161.192V81.4183H407.849V97.0486L405.932 94.9842C407.898 89.9707 411.044 86.186 415.37 83.6301C419.695 80.9759 424.708 79.6488 430.41 79.6488C436.308 79.6488 441.518 80.9268 446.04 83.4827C450.562 86.0386 454.101 89.5775 456.657 94.0995C459.213 98.6215 460.491 103.832 460.491 109.73V161.192H443.976V114.154C443.976 110.123 443.239 106.732 441.764 103.979C440.29 101.128 438.176 98.9655 435.424 97.491C432.769 95.9181 429.722 95.1317 426.281 95.1317C422.841 95.1317 419.744 95.9181 416.992 97.491C414.337 98.9655 412.273 101.128 410.798 103.979C409.324 106.83 408.587 110.221 408.587 114.154V161.192H391.924Z" fill="white"/>
<path d="M66.368 383.232V421.632C66.368 422.905 65.8623 424.126 64.9621 425.026C64.0619 425.926 62.841 426.432 61.568 426.432C60.295 426.432 59.0741 425.926 58.1739 425.026C57.2737 424.126 56.768 422.905 56.768 421.632V383.232C56.768 381.959 57.2737 380.738 58.1739 379.838C59.0741 378.938 60.295 378.432 61.568 378.432C62.841 378.432 64.0619 378.938 64.9621 379.838C65.8623 380.738 66.368 381.959 66.368 383.232ZM85.568 340.032C84.295 340.032 83.0741 340.538 82.1739 341.438C81.2737 342.338 80.768 343.559 80.768 344.832V460.032C80.768 461.305 81.2737 462.526 82.1739 463.426C83.0741 464.326 84.295 464.832 85.568 464.832C86.841 464.832 88.0619 464.326 88.9621 463.426C89.8623 462.526 90.368 461.305 90.368 460.032V344.832C90.368 343.559 89.8623 342.338 88.9621 341.438C88.0619 340.538 86.841 340.032 85.568 340.032ZM109.568 359.232C108.295 359.232 107.074 359.738 106.174 360.638C105.274 361.538 104.768 362.759 104.768 364.032V440.832C104.768 442.105 105.274 443.326 106.174 444.226C107.074 445.126 108.295 445.632 109.568 445.632C110.841 445.632 112.062 445.126 112.962 444.226C113.862 443.326 114.368 442.105 114.368 440.832V364.032C114.368 362.759 113.862 361.538 112.962 360.638C112.062 359.738 110.841 359.232 109.568 359.232ZM133.568 378.432C132.295 378.432 131.074 378.938 130.174 379.838C129.274 380.738 128.768 381.959 128.768 383.232V421.632C128.768 422.905 129.274 424.126 130.174 425.026C131.074 425.926 132.295 426.432 133.568 426.432C134.841 426.432 136.062 425.926 136.962 425.026C137.862 424.126 138.368 422.905 138.368 421.632V383.232C138.368 381.959 137.862 380.738 136.962 379.838C136.062 378.938 134.841 378.432 133.568 378.432ZM157.568 368.832C156.295 368.832 155.074 369.338 154.174 370.238C153.274 371.138 152.768 372.359 152.768 373.632V431.232C152.768 432.505 153.274 433.726 154.174 434.626C155.074 435.526 156.295 436.032 157.568 436.032C158.841 436.032 160.062 435.526 160.962 434.626C161.862 433.726 162.368 432.505 162.368 431.232V373.632C162.368 372.359 161.862 371.138 160.962 370.238C160.062 369.338 158.841 368.832 157.568 368.832Z" fill="white"/>
</svg>
