<svg width="1475" height="586" viewBox="0 0 1475 586" fill="none" xmlns="http://www.w3.org/2000/svg">
<path d="M77.5369 575.396V253.784H5.23047V165.66H77.5369V152.103C77.5369 120.971 83.8134 94.6092 96.3666 73.0177C109.422 50.9241 127.499 34.1028 150.596 22.5539C173.694 11.0049 201.06 5.23047 232.694 5.23047C238.72 5.23047 245.248 5.73259 252.277 6.73683C259.809 7.23898 266.086 7.99218 271.107 8.99642V94.107C266.086 93.1028 261.316 92.6007 256.796 92.6007C252.779 92.0986 249.013 91.8475 245.499 91.8475C223.405 91.8475 206.333 96.8688 194.282 106.911C182.23 116.452 176.205 131.516 176.205 152.103V165.66H267.341V253.784H176.205V575.396H77.5369Z" fill="black"/>
<path d="M479.459 584.435C439.288 584.435 402.633 575.145 369.493 556.567C336.854 537.988 310.744 512.63 291.161 480.494C272.08 448.358 262.54 411.703 262.54 370.528C262.54 329.354 272.08 292.699 291.161 260.562C310.744 228.426 336.854 203.069 369.493 184.49C402.131 165.911 438.786 156.622 479.459 156.622C519.629 156.622 556.033 165.911 588.671 184.49C621.31 203.069 647.169 228.426 666.25 260.562C685.833 292.196 695.625 328.852 695.625 370.528C695.625 411.703 685.833 448.358 666.25 480.494C646.667 512.63 620.557 537.988 587.918 556.567C555.28 575.145 519.127 584.435 479.459 584.435ZM479.459 494.052C501.552 494.052 520.884 488.779 537.454 478.235C554.527 467.69 567.833 453.128 577.374 434.55C587.416 415.469 592.437 394.128 592.437 370.528C592.437 346.426 587.416 325.337 577.374 307.26C567.833 288.682 554.527 274.12 537.454 263.575C520.884 252.528 501.552 247.005 479.459 247.005C456.863 247.005 437.029 252.528 419.957 263.575C402.884 274.12 389.327 288.682 379.284 307.26C369.744 325.337 364.974 346.426 364.974 370.528C364.974 394.128 369.744 415.469 379.284 434.55C389.327 453.128 402.884 467.69 419.957 478.235C437.029 488.779 456.863 494.052 479.459 494.052Z" fill="black"/>
<path d="M725.258 575.396V165.66H817.901V246.252L810.369 231.941C819.909 207.337 835.475 188.758 857.066 176.205C879.16 163.15 904.769 156.622 933.892 156.622C964.02 156.622 990.632 163.15 1013.73 176.205C1037.33 189.26 1055.66 207.588 1068.71 231.188C1081.77 254.286 1088.3 281.15 1088.3 311.779V575.396H989.628V335.128C989.628 317.052 986.113 301.486 979.084 288.43C972.054 275.375 962.262 265.333 949.709 258.303C937.658 250.771 923.347 247.005 906.777 247.005C890.709 247.005 876.398 250.771 863.845 258.303C851.292 265.333 841.501 275.375 834.471 288.43C827.441 301.486 823.926 317.052 823.926 335.128V575.396H725.258Z" fill="black"/>
<path d="M1250.82 584.435C1222.19 584.435 1197.34 579.665 1176.25 570.124C1155.16 560.584 1138.84 547.026 1127.29 529.452C1115.74 511.375 1109.97 490.537 1109.97 466.937C1109.97 444.341 1114.99 424.256 1125.03 406.682C1135.07 388.605 1150.64 373.541 1171.73 361.49C1192.82 349.439 1219.43 340.903 1251.57 335.882L1385.64 314.039V389.358L1270.4 408.941C1250.81 412.456 1236.25 418.733 1226.71 427.771C1217.17 436.809 1212.4 448.609 1212.4 463.171C1212.4 477.23 1217.67 488.528 1228.22 497.065C1239.27 505.099 1252.82 509.116 1268.89 509.116C1289.48 509.116 1307.56 504.847 1323.12 496.311C1339.19 487.273 1351.49 474.971 1360.03 459.405C1369.07 443.839 1373.59 426.767 1373.59 408.188V302.741C1373.59 285.167 1366.56 270.605 1352.5 259.056C1338.94 247.005 1320.86 240.979 1298.27 240.979C1277.18 240.979 1258.35 246.754 1241.78 258.303C1225.71 269.35 1213.91 284.162 1206.38 302.741L1125.79 263.575C1133.82 241.984 1146.37 223.405 1163.44 207.839C1181.02 191.771 1201.61 179.218 1225.21 170.179C1248.81 161.141 1274.42 156.622 1302.03 156.622C1335.67 156.622 1365.3 162.899 1390.91 175.452C1416.52 187.503 1436.35 204.575 1450.41 226.669C1464.97 248.26 1472.25 273.618 1472.25 302.741V575.396H1378.86V505.35L1399.95 503.843C1389.4 521.418 1376.85 536.23 1362.29 548.282C1347.73 559.83 1331.16 568.869 1312.58 575.396C1294 581.422 1273.41 584.435 1250.82 584.435Z" fill="black"/>
</svg>
